<svg width="25" height="20" viewBox="0 0 25 20" fill="none" xmlns="http://www.w3.org/2000/svg">
<path d="M21.2072 12.7035C21.092 11.9031 20.474 11.2791 19.6784 11.0931C16.586 10.3683 15.8108 8.5875 15.68 6.6123C15.1316 6.5103 14.156 6.3999 12.5 6.3999C10.844 6.3999 9.86843 6.5103 9.32003 6.6123C9.18923 8.5875 8.41403 10.3683 5.32163 11.0931C4.52603 11.2803 3.90803 11.9031 3.79283 12.7035L3.19643 16.8339C2.98643 18.2883 4.05443 19.5999 5.54003 19.5999H19.46C20.9444 19.5999 22.0136 18.2883 21.8036 16.8339L21.2072 12.7035ZM12.5 16.5903C10.826 16.5903 9.46883 15.2463 9.46883 13.5903C9.46883 11.9343 10.826 10.5903 12.5 10.5903C14.174 10.5903 15.5312 11.9343 15.5312 13.5903C15.5312 15.2463 14.1728 16.5903 12.5 16.5903ZM24.44 5.1999C24.4112 3.3999 19.8296 0.401102 12.5 0.399902C5.16923 0.401102 0.587634 3.3999 0.560034 5.1999C0.532434 6.9999 0.585234 9.3423 3.60203 8.9523C7.13123 8.4951 6.91403 7.2627 6.91403 5.5011C6.91403 4.2723 9.78443 3.9759 12.5 3.9759C15.2156 3.9759 18.0848 4.2723 18.086 5.5011C18.086 7.2627 17.8688 8.4951 21.398 8.9523C24.4136 9.3423 24.4676 6.9999 24.44 5.1999Z" fill="white"/>
</svg>
