<svg width="15" height="20" viewBox="0 0 15 20" fill="none" xmlns="http://www.w3.org/2000/svg">
<path d="M3.27204 0.439054L4.34904 0.0950539C5.35704 -0.226946 6.43504 0.294054 6.86704 1.31205L7.72704 3.34005C8.10204 4.22305 7.89404 5.26205 7.21304 5.90805L5.32004 7.70605C5.43671 8.78205 5.79804 9.84105 6.40404 10.8831C6.98031 11.8909 7.75248 12.7732 8.67504 13.4781L10.951 12.7181C11.813 12.4311 12.752 12.7621 13.281 13.5391L14.513 15.3491C15.129 16.2531 15.018 17.4991 14.255 18.2651L13.437 19.0861C12.623 19.9031 11.461 20.2001 10.385 19.8641C7.84637 19.0721 5.51204 16.7211 3.38204 12.8111C1.24937 8.89439 0.496707 5.57172 1.12404 2.84305C1.38804 1.69505 2.20604 0.780054 3.27404 0.439054" fill="white"/>
</svg>
